# xmcd
#
# Track frame offsets:
#	150
#	18220
#	34836
#	52580
#	68100
#	82904
#	99097
#	117196
#	133838
#	151441
#	167279
#	183951
#	200363
#	214653
#	228930
#
# Disc length: 3189 seconds
#
# Revision: 1
# Processed by: cddbd v1.5.2PL0 Copyright (c) Steve Scherf et al.
# Submitted via: audiograbber 1.83.01
#
DISCID=ad0c730f
DTITLE=Various Artist - Country Hits - Sony Music [CD1]
DYEAR=2010
DGENRE=Country
TTITLE0=Alan Jackson - Where I Come From
TTITLE1=Montgomery Gentry - She Couldn't Change Me
TTITLE2=Joe Diffie - Bigger Than the Beatles
TTITLE3=Ricky Van Shelton - I Am a Simple Man
TTITLE4=George Jones - He Stopped Loving Her Today
TTITLE5=Martina McBride - A Broken Wing
TTITLE6=Lonestar - Amazed
TTITLE7=Restless Heart - When She Cries
TTITLE8=Phil Vassar - Just Another Day In Paradise
TTITLE9=Clint Black - The Shoes You're Wearing
TTITLE10=Mary Chapin Carpenter - Shut Up and Kiss Me
TTITLE11=Tracy Byrd - I'm From the Country
TTITLE12=Ricky Skaggs - Highway 40 Blues
TTITLE13=Rosanne Cash - Tennessee Flat Top Box
TTITLE14=Jerry Reed - When You're Hot, You're Hot
EXTD=
EXTT0=
EXTT1=
EXTT2=
EXTT3=
EXTT4=
EXTT5=
EXTT6=
EXTT7=
EXTT8=
EXTT9=
EXTT10=
EXTT11=
EXTT12=
EXTT13=
EXTT14=
PLAYORDER=
